# xmcd
#
# Track frame offsets:
#	150
#	21954
#	42410
#	63771
#	84436
#	103886
#	126931
#	147810
#
# Disc length: 2221 seconds
#
# Revision: 1
# Processed by: cddbd v1.5.2PL0 Copyright (c) Steve Scherf et al.
# Submitted via: audiograbber 1.83.01
#
DISCID=6908ab08
DTITLE=Kaos - Aqui Esta Kaos Los Mas ¡Encendios!
DYEAR=1997
DGENRE=Latin
TTITLE0=La Confesion
TTITLE1=Morenita Chula
TTITLE2=Te Vas...
TTITLE3=Tengo Que Alejarme
TTITLE4=Mujer Ingrata
TTITLE5=Mejores Que Ella
TTITLE6=Esa Nena
TTITLE7=Kaos Mix
EXTD=
EXTT0=
EXTT1=
EXTT2=
EXTT3=
EXTT4=
EXTT5=
EXTT6=
EXTT7=
PLAYORDER=
